<?xml version="1.0" encoding="iso-8859-1"?>
<!-- Generator: Adobe Illustrator 19.0.0, SVG Export Plug-In . SVG Version: 6.00 Build 0)  -->
<svg xmlns="http://www.w3.org/2000/svg" xmlns:xlink="http://www.w3.org/1999/xlink" version="1.1" id="Layer_1" x="0px" y="0px" viewBox="0 0 454.481 454.481" style="enable-background:new 0 0 454.481 454.481;" xml:space="preserve" width="512" height="512">
<g>
	<rect x="7.502" y="402.4" style="fill:#07A521;" width="439.478" height="25.499"/>
	<path style="fill:#0FBC30;" d="M185.894,399.399H7.504v-74.09c8.15-1.04,16.46-1.58,24.9-1.58c9.72,0,19.28,0.72,28.61,2.11h0.01   c29.61,4.38,57.03,15.48,80.66,31.69C158.534,369.079,173.474,383.229,185.894,399.399z"/>
	<path style="fill:#07A521;" d="M149.774,402.309H7.504v-38.09c8.15-1.04,16.46-1.58,24.9-1.58c9.72,0,19.28,0.72,28.61,2.11h0.01   c29.61,4.38,57.03,15.48,80.66,31.69C144.434,398.329,147.134,400.279,149.774,402.309z"/>
	<path style="fill:#07A521;" d="M149.774,402.309H7.504v-38.09c8.15-1.04,16.46-1.58,24.9-1.58c9.72,0,19.28,0.72,28.61,2.11h0.01   c29.61,4.38,57.03,15.48,80.66,31.69C144.434,398.329,147.134,400.279,149.774,402.309z"/>
	<path style="fill:#0FBC30;" d="M312.334,287.969c51.54,2.4,98.44,22.63,134.65,54.67v56.76h-261.09   c-12.42-16.17-27.36-30.32-44.21-41.87c25.41-27.3,57.71-48.09,94.13-59.62c20.87-6.61,43.1-10.18,66.16-10.18   C305.444,287.729,308.904,287.809,312.334,287.969z"/>
	<path style="fill:#07A521;" d="M446.984,355.489v43.91h-260.13c25.23-26.69,57.1-47.03,92.96-58.38   c20.87-6.61,43.1-10.18,66.16-10.18c3.47,0,6.93,0.08,10.36,0.24C388.914,332.599,419.644,341.239,446.984,355.489z"/>
	<path style="fill:#07A521;" d="M446.984,355.489v43.91h-260.13c25.23-26.69,57.1-47.03,92.96-58.38   c20.87-6.61,43.1-10.18,66.16-10.18c3.47,0,6.93,0.08,10.36,0.24C388.914,332.599,419.644,341.239,446.984,355.489z"/>
	<path style="fill:#0FBC30;" d="M235.814,297.909c-36.42,11.53-68.72,32.32-94.13,59.62c-23.63-16.21-51.05-27.31-80.66-31.69   c34.25-22.21,75.09-35.11,118.95-35.11C199.274,290.729,217.984,293.219,235.814,297.909z"/>
	<path style="fill:#0FBC30;" d="M333.004,237.009c0,15.06-9.25,17.78-20.67,17.78c-11.41,0-20.66-2.72-20.66-17.78   c0-15.06,9.25-44.66,20.66-44.66C323.754,192.349,333.004,221.949,333.004,237.009z"/>
	<path style="fill:#07A521;" d="M312.334,192.349c-0.352,0-0.703,0.029-1.051,0.084c4.13,9.571,6.721,21.608,6.721,29.576   c0,15.06-9.25,17.78-20.67,17.78c-1.929,0-3.794-0.081-5.565-0.283c0.99,12.865,9.817,15.283,20.565,15.283   c11.42,0,20.67-2.72,20.67-17.78S323.754,192.349,312.334,192.349z"/>
	<path style="fill:#3B9DFF;" d="M431.054,170.689c2.06,2.06,3.33,4.9,3.33,8.03c0,6.27-5.09,11.36-11.36,11.36h-39.17   c-3.13,0-5.97-1.27-8.03-3.33c-2.05-2.06-3.32-4.9-3.32-8.03c0-6.27,5.08-11.36,11.35-11.36h-42.84c-3.14,0-5.98-1.27-8.03-3.33   c-2.06-2.06-3.33-4.9-3.33-8.03c0-6.27,5.08-11.36,11.36-11.36h65.56c3.14,0,5.98,1.27,8.03,3.33c2.06,2.06,3.33,4.9,3.33,8.03   c0,6.27-5.08,11.36-11.36,11.36h16.45C426.164,167.359,429.004,168.629,431.054,170.689z"/>
	<path style="fill:#3B9DFF;" d="M175.914,77.579c8.49,0,15.37,6.89,15.37,15.38c0,4.25-1.72,8.09-4.5,10.87s-6.62,4.5-10.87,4.5   h-22.26c8.49,0,15.38,6.89,15.38,15.38c0,0.94-0.08,1.86-0.25,2.76c-0.57,3.14-2.09,5.95-4.26,8.11c-2.78,2.78-6.62,4.5-10.87,4.5   h-88.74c-8.49,0-15.37-6.88-15.37-15.37c0-4.24,1.72-8.09,4.5-10.87c2.78-2.79,6.62-4.51,10.87-4.51h58   c-8.5,0-15.38-6.88-15.38-15.37c0-4.25,1.72-8.09,4.5-10.87c2.79-2.79,6.63-4.51,10.88-4.51h3.44H175.914z"/>
	<path style="fill:#FFD039;" d="M176.594,26.579c27.75,0,50.24,22.5,50.24,50.25s-22.49,50.25-50.24,50.25   c-2.66,0-5.27-0.21-7.81-0.61c0.17-0.9,0.25-1.82,0.25-2.76c0-8.49-6.89-15.38-15.38-15.38h22.26c4.25,0,8.09-1.72,10.87-4.5   s4.5-6.62,4.5-10.87c0-8.49-6.88-15.38-15.37-15.38h-49.56c-0.01-0.25-0.01-0.5-0.01-0.75   C126.344,49.079,148.844,26.579,176.594,26.579z"/>
	<g>
		<path style="fill:#333333;" d="M64.918,146.58h88.74c8.709,0,16.295-4.893,20.158-12.073c0.927,0.045,1.855,0.075,2.781,0.075    c31.838,0,57.74-25.907,57.74-57.75s-25.902-57.75-57.74-57.75c-29.664,0-54.165,22.485-57.381,51.305    c-10.862,1.772-19.18,11.217-19.18,22.571c0,2.765,0.494,5.418,1.396,7.874H64.918c-12.613,0-22.875,10.261-22.875,22.875    C42.043,136.319,52.305,146.58,64.918,146.58z M176.596,34.082c23.567,0,42.74,19.178,42.74,42.75s-19.173,42.75-42.74,42.75    c-0.147,0-0.294-0.007-0.442-0.009c-0.236-1.287-0.577-2.538-1.019-3.741h0.777c12.613,0,22.875-10.261,22.875-22.874    s-10.262-22.874-22.875-22.874h-41.528C137.629,49.707,155.32,34.082,176.596,34.082z M64.918,115.832h57.991    c4.142,0,7.5-3.358,7.5-7.5s-3.358-7.5-7.5-7.5c-4.342,0-7.874-3.532-7.874-7.874s3.532-7.874,7.874-7.874h53.003    c4.342,0,7.875,3.532,7.875,7.874s-3.533,7.874-7.875,7.874h-22.254c-4.142,0-7.5,3.358-7.5,7.5s3.358,7.5,7.5,7.5    c4.342,0,7.875,3.533,7.875,7.875c0,4.342-3.533,7.874-7.875,7.874h-88.74c-4.342,0-7.875-3.532-7.875-7.874    C57.043,119.364,60.576,115.832,64.918,115.832z"/>
		<path style="fill:#333333;" d="M341.01,174.859h24.386c-0.26,1.246-0.397,2.537-0.397,3.859c0,10.399,8.46,18.86,18.859,18.86    h39.163c10.399,0,18.86-8.46,18.86-18.86c0-9.725-7.399-17.753-16.863-18.754c0.275-1.279,0.419-2.605,0.419-3.965    c0-10.399-8.46-18.86-18.859-18.86H341.01c-10.399,0-18.86,8.46-18.86,18.86S330.61,174.859,341.01,174.859z M341.01,152.14    h65.568c2.128,0,3.859,1.731,3.859,3.86s-1.731,3.86-3.859,3.86c-4.142,0-7.5,3.358-7.5,7.5s3.358,7.5,7.5,7.5h16.443    c2.128,0,3.86,1.731,3.86,3.859c0,2.128-1.731,3.86-3.86,3.86h-39.163c-2.128,0-3.859-1.731-3.859-3.86    c0-2.128,1.731-3.859,3.859-3.859c4.142,0,7.5-3.358,7.5-7.5s-3.358-7.5-7.5-7.5H341.01c-2.128,0-3.86-1.731-3.86-3.86    S338.881,152.14,341.01,152.14z"/>
		<path style="fill:#333333;" d="M0.002,399.4c0,4.142,3.358,7.5,7.5,7.5H446.98c4.142,0,7.5-3.358,7.5-7.5s-3.358-7.5-7.5-7.5    H189.541c-10.609-13.298-22.825-25.159-36.421-35.379c18.293-18.158,39.448-32.658,63.013-43.141    c27.076-12.043,55.957-18.15,85.838-18.15c51.658,0,101.392,18.832,140.04,53.027c3.103,2.745,7.842,2.455,10.587-0.647    c2.745-3.102,2.455-7.842-0.647-10.587c-36.915-32.661-83.274-52.222-132.112-56.075v-19.21    c13.705-2.099,20.663-10.377,20.663-24.73c0-8.752-2.589-20.833-6.596-30.778c-7.118-17.669-15.657-21.378-21.567-21.378    s-14.449,3.709-21.567,21.378c-4.006,9.945-6.595,22.026-6.595,30.778c0,14.353,6.958,22.631,20.663,24.73v18.525    c-0.956-0.012-1.91-0.033-2.867-0.033c-22.766,0-44.988,3.33-66.366,9.889c-18.081-4.567-36.785-6.889-55.634-6.889    c-42.897,0-84.538,12.025-120.63,34.792c-8.874-1.187-17.869-1.792-26.941-1.792c-8.625,0-17.322,0.552-25.849,1.64    c-4.109,0.524-7.015,4.28-6.49,8.389c0.524,4.109,4.283,7.021,8.389,6.49c7.9-1.008,15.958-1.519,23.951-1.519    c37.74,0,74.062,11.233,105.04,32.486c11.884,8.146,22.718,17.598,32.373,28.184H7.502C3.36,391.9,0.002,395.258,0.002,399.4z     M299.175,237.009c0-6.363,1.994-15.916,4.961-23.771c3.66-9.686,7.163-12.83,8.201-13.338c1.039,0.508,4.542,3.652,8.201,13.338    c2.968,7.855,4.962,17.408,4.962,23.771c0,8.797-3.287,10.283-13.163,10.283C302.462,247.292,299.175,245.806,299.175,237.009z     M179.971,298.231c9.704,0,19.362,0.676,28.905,1.979c-25.61,11.563-48.549,27.557-68.277,47.615    c-18.222-11.673-38.028-20.232-58.774-25.473C111.972,306.524,145.538,298.231,179.971,298.231z"/>
		<path style="fill:#333333;" d="M446.98,420.399H7.502c-4.142,0-7.5,3.358-7.5,7.5s3.358,7.5,7.5,7.5H446.98    c4.142,0,7.5-3.358,7.5-7.5S451.122,420.399,446.98,420.399z"/>
	</g>
</g>















</svg>
